<mxfile host="app.diagrams.net" modified="2023-12-22T09:36:25.310Z" agent="Mozilla/5.0 (Windows NT 10.0; Win64; x64) AppleWebKit/537.36 (KHTML, like Gecko) Chrome/120.0.0.0 Safari/537.36" etag="R7lDDq2eOW2Tk5aY-wRc" version="22.1.11" type="device">
  <diagram name="Page-1" id="V9e-tld085RO5gxXPKPd">
    <mxGraphModel dx="1434" dy="1880" grid="1" gridSize="10" guides="1" tooltips="1" connect="1" arrows="1" fold="1" page="1" pageScale="1" pageWidth="850" pageHeight="1100" math="0" shadow="0">
      <root>
        <mxCell id="0" />
        <mxCell id="1" parent="0" />
        <mxCell id="qZ_pkVnO6XhNciUabmrp-1" value="" style="whiteSpace=wrap;html=1;aspect=fixed;" parent="1" vertex="1">
          <mxGeometry x="10" y="30" width="400" height="400" as="geometry" />
        </mxCell>
        <mxCell id="qZ_pkVnO6XhNciUabmrp-2" value="SE1" style="ellipse;whiteSpace=wrap;html=1;" parent="1" vertex="1">
          <mxGeometry x="60" y="80" width="120" height="80" as="geometry" />
        </mxCell>
        <mxCell id="qZ_pkVnO6XhNciUabmrp-4" value="EN1" style="ellipse;whiteSpace=wrap;html=1;" parent="1" vertex="1">
          <mxGeometry x="250" y="80" width="120" height="80" as="geometry" />
        </mxCell>
        <mxCell id="qZ_pkVnO6XhNciUabmrp-5" value="DI1" style="ellipse;whiteSpace=wrap;html=1;" parent="1" vertex="1">
          <mxGeometry x="260" y="270" width="120" height="80" as="geometry" />
        </mxCell>
        <mxCell id="qZ_pkVnO6XhNciUabmrp-6" value="HR1" style="ellipse;whiteSpace=wrap;html=1;" parent="1" vertex="1">
          <mxGeometry x="60" y="270" width="120" height="80" as="geometry" />
        </mxCell>
        <mxCell id="qZ_pkVnO6XhNciUabmrp-7" value="" style="whiteSpace=wrap;html=1;aspect=fixed;" parent="1" vertex="1">
          <mxGeometry x="430" y="30" width="400" height="400" as="geometry" />
        </mxCell>
        <mxCell id="qZ_pkVnO6XhNciUabmrp-8" value="SE2" style="ellipse;whiteSpace=wrap;html=1;" parent="1" vertex="1">
          <mxGeometry x="490" y="80" width="120" height="80" as="geometry" />
        </mxCell>
        <mxCell id="qZ_pkVnO6XhNciUabmrp-9" value="EN2" style="ellipse;whiteSpace=wrap;html=1;" parent="1" vertex="1">
          <mxGeometry x="700" y="80" width="120" height="80" as="geometry" />
        </mxCell>
        <mxCell id="qZ_pkVnO6XhNciUabmrp-10" value="HR2" style="ellipse;whiteSpace=wrap;html=1;" parent="1" vertex="1">
          <mxGeometry x="500" y="300" width="120" height="80" as="geometry" />
        </mxCell>
        <mxCell id="qZ_pkVnO6XhNciUabmrp-11" value="DI2" style="ellipse;whiteSpace=wrap;html=1;" parent="1" vertex="1">
          <mxGeometry x="700" y="300" width="120" height="80" as="geometry" />
        </mxCell>
        <mxCell id="qZ_pkVnO6XhNciUabmrp-12" value="" style="whiteSpace=wrap;html=1;aspect=fixed;" parent="1" vertex="1">
          <mxGeometry x="225" y="530" width="400" height="400" as="geometry" />
        </mxCell>
        <mxCell id="qZ_pkVnO6XhNciUabmrp-13" value="SE3" style="ellipse;whiteSpace=wrap;html=1;" parent="1" vertex="1">
          <mxGeometry x="270" y="630" width="120" height="80" as="geometry" />
        </mxCell>
        <mxCell id="qZ_pkVnO6XhNciUabmrp-14" value="EN3" style="ellipse;whiteSpace=wrap;html=1;" parent="1" vertex="1">
          <mxGeometry x="460" y="630" width="120" height="80" as="geometry" />
        </mxCell>
        <mxCell id="qZ_pkVnO6XhNciUabmrp-15" value="DI3" style="ellipse;whiteSpace=wrap;html=1;" parent="1" vertex="1">
          <mxGeometry x="470" y="800" width="120" height="80" as="geometry" />
        </mxCell>
        <mxCell id="qZ_pkVnO6XhNciUabmrp-16" value="HR3" style="ellipse;whiteSpace=wrap;html=1;" parent="1" vertex="1">
          <mxGeometry x="270" y="800" width="120" height="80" as="geometry" />
        </mxCell>
        <mxCell id="qZ_pkVnO6XhNciUabmrp-20" value="" style="endArrow=none;html=1;rounded=0;entryX=0;entryY=0.5;entryDx=0;entryDy=0;" parent="1" source="qZ_pkVnO6XhNciUabmrp-13" target="qZ_pkVnO6XhNciUabmrp-14" edge="1">
          <mxGeometry width="50" height="50" relative="1" as="geometry">
            <mxPoint x="400" y="590" as="sourcePoint" />
            <mxPoint x="450" y="540" as="targetPoint" />
          </mxGeometry>
        </mxCell>
        <mxCell id="qZ_pkVnO6XhNciUabmrp-65" value="5" style="edgeLabel;html=1;align=center;verticalAlign=middle;resizable=0;points=[];" parent="qZ_pkVnO6XhNciUabmrp-20" vertex="1" connectable="0">
          <mxGeometry x="0.0571" y="3" relative="1" as="geometry">
            <mxPoint x="-2" y="-7" as="offset" />
          </mxGeometry>
        </mxCell>
        <mxCell id="qZ_pkVnO6XhNciUabmrp-26" value="" style="endArrow=none;html=1;rounded=0;exitX=1;exitY=0.5;exitDx=0;exitDy=0;" parent="1" source="qZ_pkVnO6XhNciUabmrp-16" target="qZ_pkVnO6XhNciUabmrp-15" edge="1">
          <mxGeometry width="50" height="50" relative="1" as="geometry">
            <mxPoint x="400" y="590" as="sourcePoint" />
            <mxPoint x="450" y="540" as="targetPoint" />
            <Array as="points" />
          </mxGeometry>
        </mxCell>
        <mxCell id="qZ_pkVnO6XhNciUabmrp-69" value="1" style="edgeLabel;html=1;align=center;verticalAlign=middle;resizable=0;points=[];" parent="qZ_pkVnO6XhNciUabmrp-26" vertex="1" connectable="0">
          <mxGeometry x="0.05" y="-2" relative="1" as="geometry">
            <mxPoint x="-2" y="8" as="offset" />
          </mxGeometry>
        </mxCell>
        <mxCell id="qZ_pkVnO6XhNciUabmrp-27" value="" style="endArrow=none;html=1;rounded=0;exitX=0.5;exitY=0;exitDx=0;exitDy=0;entryX=0.5;entryY=1;entryDx=0;entryDy=0;" parent="1" source="qZ_pkVnO6XhNciUabmrp-16" target="qZ_pkVnO6XhNciUabmrp-13" edge="1">
          <mxGeometry width="50" height="50" relative="1" as="geometry">
            <mxPoint x="400" y="590" as="sourcePoint" />
            <mxPoint x="450" y="540" as="targetPoint" />
          </mxGeometry>
        </mxCell>
        <mxCell id="qZ_pkVnO6XhNciUabmrp-31" value="10" style="edgeLabel;html=1;align=center;verticalAlign=middle;resizable=0;points=[];" parent="qZ_pkVnO6XhNciUabmrp-27" vertex="1" connectable="0">
          <mxGeometry x="0.2" relative="1" as="geometry">
            <mxPoint x="-10" y="4" as="offset" />
          </mxGeometry>
        </mxCell>
        <mxCell id="qZ_pkVnO6XhNciUabmrp-28" value="" style="endArrow=none;html=1;rounded=0;entryX=0.558;entryY=0.988;entryDx=0;entryDy=0;entryPerimeter=0;" parent="1" source="qZ_pkVnO6XhNciUabmrp-15" target="qZ_pkVnO6XhNciUabmrp-14" edge="1">
          <mxGeometry width="50" height="50" relative="1" as="geometry">
            <mxPoint x="400" y="590" as="sourcePoint" />
            <mxPoint x="450" y="540" as="targetPoint" />
          </mxGeometry>
        </mxCell>
        <mxCell id="qZ_pkVnO6XhNciUabmrp-68" value="10" style="edgeLabel;html=1;align=center;verticalAlign=middle;resizable=0;points=[];" parent="qZ_pkVnO6XhNciUabmrp-28" vertex="1" connectable="0">
          <mxGeometry x="-0.035" y="-5" relative="1" as="geometry">
            <mxPoint x="7" as="offset" />
          </mxGeometry>
        </mxCell>
        <mxCell id="qZ_pkVnO6XhNciUabmrp-29" value="" style="endArrow=none;html=1;rounded=0;exitX=1;exitY=0;exitDx=0;exitDy=0;" parent="1" source="qZ_pkVnO6XhNciUabmrp-16" target="qZ_pkVnO6XhNciUabmrp-14" edge="1">
          <mxGeometry width="50" height="50" relative="1" as="geometry">
            <mxPoint x="400" y="590" as="sourcePoint" />
            <mxPoint x="450" y="540" as="targetPoint" />
          </mxGeometry>
        </mxCell>
        <mxCell id="qZ_pkVnO6XhNciUabmrp-66" value="10" style="edgeLabel;html=1;align=center;verticalAlign=middle;resizable=0;points=[];" parent="qZ_pkVnO6XhNciUabmrp-29" vertex="1" connectable="0">
          <mxGeometry x="0.5058" relative="1" as="geometry">
            <mxPoint x="12" as="offset" />
          </mxGeometry>
        </mxCell>
        <mxCell id="qZ_pkVnO6XhNciUabmrp-30" value="" style="endArrow=none;html=1;rounded=0;" parent="1" source="qZ_pkVnO6XhNciUabmrp-13" target="qZ_pkVnO6XhNciUabmrp-15" edge="1">
          <mxGeometry width="50" height="50" relative="1" as="geometry">
            <mxPoint x="400" y="590" as="sourcePoint" />
            <mxPoint x="450" y="540" as="targetPoint" />
          </mxGeometry>
        </mxCell>
        <mxCell id="qZ_pkVnO6XhNciUabmrp-67" value="1" style="edgeLabel;html=1;align=center;verticalAlign=middle;resizable=0;points=[];" parent="qZ_pkVnO6XhNciUabmrp-30" vertex="1" connectable="0">
          <mxGeometry x="0.68" y="2" relative="1" as="geometry">
            <mxPoint x="-4" y="-10" as="offset" />
          </mxGeometry>
        </mxCell>
        <mxCell id="qZ_pkVnO6XhNciUabmrp-32" value="" style="endArrow=none;html=1;rounded=0;entryX=0.567;entryY=1.038;entryDx=0;entryDy=0;entryPerimeter=0;" parent="1" source="qZ_pkVnO6XhNciUabmrp-5" target="qZ_pkVnO6XhNciUabmrp-4" edge="1">
          <mxGeometry width="50" height="50" relative="1" as="geometry">
            <mxPoint x="400" y="190" as="sourcePoint" />
            <mxPoint x="450" y="140" as="targetPoint" />
          </mxGeometry>
        </mxCell>
        <mxCell id="qZ_pkVnO6XhNciUabmrp-45" value="10" style="edgeLabel;html=1;align=center;verticalAlign=middle;resizable=0;points=[];" parent="qZ_pkVnO6XhNciUabmrp-32" vertex="1" connectable="0">
          <mxGeometry x="0.2527" relative="1" as="geometry">
            <mxPoint x="11" as="offset" />
          </mxGeometry>
        </mxCell>
        <mxCell id="qZ_pkVnO6XhNciUabmrp-33" value="" style="endArrow=none;html=1;rounded=0;exitX=1;exitY=0.5;exitDx=0;exitDy=0;" parent="1" source="qZ_pkVnO6XhNciUabmrp-6" target="qZ_pkVnO6XhNciUabmrp-5" edge="1">
          <mxGeometry width="50" height="50" relative="1" as="geometry">
            <mxPoint x="400" y="190" as="sourcePoint" />
            <mxPoint x="450" y="140" as="targetPoint" />
          </mxGeometry>
        </mxCell>
        <mxCell id="qZ_pkVnO6XhNciUabmrp-44" value="1" style="edgeLabel;html=1;align=center;verticalAlign=middle;resizable=0;points=[];" parent="qZ_pkVnO6XhNciUabmrp-33" vertex="1" connectable="0">
          <mxGeometry x="-0.175" y="-4" relative="1" as="geometry">
            <mxPoint x="7" y="6" as="offset" />
          </mxGeometry>
        </mxCell>
        <mxCell id="qZ_pkVnO6XhNciUabmrp-34" value="" style="endArrow=none;html=1;rounded=0;exitX=0.5;exitY=0;exitDx=0;exitDy=0;entryX=0.5;entryY=1;entryDx=0;entryDy=0;" parent="1" source="qZ_pkVnO6XhNciUabmrp-6" target="qZ_pkVnO6XhNciUabmrp-2" edge="1">
          <mxGeometry width="50" height="50" relative="1" as="geometry">
            <mxPoint x="400" y="190" as="sourcePoint" />
            <mxPoint x="450" y="140" as="targetPoint" />
          </mxGeometry>
        </mxCell>
        <mxCell id="qZ_pkVnO6XhNciUabmrp-40" value="10" style="edgeLabel;html=1;align=center;verticalAlign=middle;resizable=0;points=[];" parent="qZ_pkVnO6XhNciUabmrp-34" vertex="1" connectable="0">
          <mxGeometry y="1" relative="1" as="geometry">
            <mxPoint x="-9" as="offset" />
          </mxGeometry>
        </mxCell>
        <mxCell id="qZ_pkVnO6XhNciUabmrp-35" value="" style="endArrow=none;html=1;rounded=0;entryX=0;entryY=0.5;entryDx=0;entryDy=0;" parent="1" source="qZ_pkVnO6XhNciUabmrp-2" target="qZ_pkVnO6XhNciUabmrp-4" edge="1">
          <mxGeometry width="50" height="50" relative="1" as="geometry">
            <mxPoint x="400" y="190" as="sourcePoint" />
            <mxPoint x="450" y="140" as="targetPoint" />
          </mxGeometry>
        </mxCell>
        <mxCell id="qZ_pkVnO6XhNciUabmrp-41" value="5" style="edgeLabel;html=1;align=center;verticalAlign=middle;resizable=0;points=[];" parent="qZ_pkVnO6XhNciUabmrp-35" vertex="1" connectable="0">
          <mxGeometry x="0.2" y="1" relative="1" as="geometry">
            <mxPoint x="-2" y="-9" as="offset" />
          </mxGeometry>
        </mxCell>
        <mxCell id="qZ_pkVnO6XhNciUabmrp-36" value="" style="endArrow=none;html=1;rounded=0;" parent="1" source="qZ_pkVnO6XhNciUabmrp-6" target="qZ_pkVnO6XhNciUabmrp-4" edge="1">
          <mxGeometry width="50" height="50" relative="1" as="geometry">
            <mxPoint x="400" y="190" as="sourcePoint" />
            <mxPoint x="450" y="140" as="targetPoint" />
          </mxGeometry>
        </mxCell>
        <mxCell id="qZ_pkVnO6XhNciUabmrp-42" value="10" style="edgeLabel;html=1;align=center;verticalAlign=middle;resizable=0;points=[];" parent="qZ_pkVnO6XhNciUabmrp-36" vertex="1" connectable="0">
          <mxGeometry x="0.478" y="-1" relative="1" as="geometry">
            <mxPoint x="5" y="4" as="offset" />
          </mxGeometry>
        </mxCell>
        <mxCell id="qZ_pkVnO6XhNciUabmrp-37" value="" style="endArrow=none;html=1;rounded=0;exitX=0;exitY=0;exitDx=0;exitDy=0;" parent="1" source="qZ_pkVnO6XhNciUabmrp-5" target="qZ_pkVnO6XhNciUabmrp-2" edge="1">
          <mxGeometry width="50" height="50" relative="1" as="geometry">
            <mxPoint x="400" y="190" as="sourcePoint" />
            <mxPoint x="450" y="140" as="targetPoint" />
          </mxGeometry>
        </mxCell>
        <mxCell id="qZ_pkVnO6XhNciUabmrp-43" value="1" style="edgeLabel;html=1;align=center;verticalAlign=middle;resizable=0;points=[];" parent="qZ_pkVnO6XhNciUabmrp-37" vertex="1" connectable="0">
          <mxGeometry x="-0.4685" y="2" relative="1" as="geometry">
            <mxPoint x="7" y="-9" as="offset" />
          </mxGeometry>
        </mxCell>
        <mxCell id="qZ_pkVnO6XhNciUabmrp-38" value="" style="endArrow=none;html=1;rounded=0;entryX=0;entryY=0.5;entryDx=0;entryDy=0;exitX=1;exitY=0.5;exitDx=0;exitDy=0;" parent="1" source="qZ_pkVnO6XhNciUabmrp-8" target="qZ_pkVnO6XhNciUabmrp-9" edge="1">
          <mxGeometry width="50" height="50" relative="1" as="geometry">
            <mxPoint x="400" y="190" as="sourcePoint" />
            <mxPoint x="450" y="140" as="targetPoint" />
          </mxGeometry>
        </mxCell>
        <mxCell id="qZ_pkVnO6XhNciUabmrp-60" value="5" style="edgeLabel;html=1;align=center;verticalAlign=middle;resizable=0;points=[];" parent="qZ_pkVnO6XhNciUabmrp-38" vertex="1" connectable="0">
          <mxGeometry x="-0.0444" y="-3" relative="1" as="geometry">
            <mxPoint y="-13" as="offset" />
          </mxGeometry>
        </mxCell>
        <mxCell id="qZ_pkVnO6XhNciUabmrp-39" value="" style="endArrow=none;html=1;rounded=0;entryX=0.592;entryY=1;entryDx=0;entryDy=0;entryPerimeter=0;" parent="1" source="qZ_pkVnO6XhNciUabmrp-10" target="qZ_pkVnO6XhNciUabmrp-8" edge="1">
          <mxGeometry width="50" height="50" relative="1" as="geometry">
            <mxPoint x="400" y="190" as="sourcePoint" />
            <mxPoint x="450" y="140" as="targetPoint" />
          </mxGeometry>
        </mxCell>
        <mxCell id="qZ_pkVnO6XhNciUabmrp-59" value="10" style="edgeLabel;html=1;align=center;verticalAlign=middle;resizable=0;points=[];" parent="qZ_pkVnO6XhNciUabmrp-39" vertex="1" connectable="0">
          <mxGeometry x="0.1569" y="3" relative="1" as="geometry">
            <mxPoint x="-8" as="offset" />
          </mxGeometry>
        </mxCell>
        <mxCell id="qZ_pkVnO6XhNciUabmrp-47" value="" style="endArrow=none;html=1;rounded=0;exitX=1;exitY=0;exitDx=0;exitDy=0;entryX=0.35;entryY=0.025;entryDx=0;entryDy=0;entryPerimeter=0;" parent="1" source="qZ_pkVnO6XhNciUabmrp-2" target="qZ_pkVnO6XhNciUabmrp-8" edge="1">
          <mxGeometry width="50" height="50" relative="1" as="geometry">
            <mxPoint x="400" y="190" as="sourcePoint" />
            <mxPoint x="450" y="140" as="targetPoint" />
            <Array as="points">
              <mxPoint x="340" y="50" />
            </Array>
          </mxGeometry>
        </mxCell>
        <mxCell id="qZ_pkVnO6XhNciUabmrp-48" value="1" style="edgeLabel;html=1;align=center;verticalAlign=middle;resizable=0;points=[];" parent="qZ_pkVnO6XhNciUabmrp-47" vertex="1" connectable="0">
          <mxGeometry x="0.0547" y="-1" relative="1" as="geometry">
            <mxPoint x="14" y="-14" as="offset" />
          </mxGeometry>
        </mxCell>
        <mxCell id="qZ_pkVnO6XhNciUabmrp-49" value="Firm 1" style="text;html=1;strokeColor=none;fillColor=none;align=center;verticalAlign=middle;whiteSpace=wrap;rounded=0;" parent="1" vertex="1">
          <mxGeometry x="20" y="-10" width="60" height="30" as="geometry" />
        </mxCell>
        <mxCell id="qZ_pkVnO6XhNciUabmrp-51" value="Firm 2" style="text;html=1;strokeColor=none;fillColor=none;align=center;verticalAlign=middle;whiteSpace=wrap;rounded=0;" parent="1" vertex="1">
          <mxGeometry x="450" y="-20" width="60" height="30" as="geometry" />
        </mxCell>
        <mxCell id="qZ_pkVnO6XhNciUabmrp-52" value="Firm 3" style="text;html=1;strokeColor=none;fillColor=none;align=center;verticalAlign=middle;whiteSpace=wrap;rounded=0;" parent="1" vertex="1">
          <mxGeometry x="220" y="500" width="60" height="30" as="geometry" />
        </mxCell>
        <mxCell id="qZ_pkVnO6XhNciUabmrp-53" value="" style="endArrow=none;html=1;rounded=0;" parent="1" source="qZ_pkVnO6XhNciUabmrp-4" target="qZ_pkVnO6XhNciUabmrp-9" edge="1">
          <mxGeometry width="50" height="50" relative="1" as="geometry">
            <mxPoint x="400" y="250" as="sourcePoint" />
            <mxPoint x="450" y="200" as="targetPoint" />
            <Array as="points">
              <mxPoint x="580" y="40" />
            </Array>
          </mxGeometry>
        </mxCell>
        <mxCell id="qZ_pkVnO6XhNciUabmrp-54" value="10" style="edgeLabel;html=1;align=center;verticalAlign=middle;resizable=0;points=[];" parent="qZ_pkVnO6XhNciUabmrp-53" vertex="1" connectable="0">
          <mxGeometry x="0.5242" y="1" relative="1" as="geometry">
            <mxPoint x="2" y="-8" as="offset" />
          </mxGeometry>
        </mxCell>
        <mxCell id="qZ_pkVnO6XhNciUabmrp-55" value="" style="endArrow=none;html=1;rounded=0;exitX=0.5;exitY=0;exitDx=0;exitDy=0;entryX=0.5;entryY=1;entryDx=0;entryDy=0;" parent="1" source="qZ_pkVnO6XhNciUabmrp-11" target="qZ_pkVnO6XhNciUabmrp-9" edge="1">
          <mxGeometry width="50" height="50" relative="1" as="geometry">
            <mxPoint x="400" y="250" as="sourcePoint" />
            <mxPoint x="450" y="200" as="targetPoint" />
          </mxGeometry>
        </mxCell>
        <mxCell id="qZ_pkVnO6XhNciUabmrp-63" value="10" style="edgeLabel;html=1;align=center;verticalAlign=middle;resizable=0;points=[];" parent="qZ_pkVnO6XhNciUabmrp-55" vertex="1" connectable="0">
          <mxGeometry x="0.0143" y="-5" relative="1" as="geometry">
            <mxPoint x="5" y="1" as="offset" />
          </mxGeometry>
        </mxCell>
        <mxCell id="qZ_pkVnO6XhNciUabmrp-56" value="" style="endArrow=none;html=1;rounded=0;" parent="1" source="qZ_pkVnO6XhNciUabmrp-10" target="qZ_pkVnO6XhNciUabmrp-11" edge="1">
          <mxGeometry width="50" height="50" relative="1" as="geometry">
            <mxPoint x="400" y="250" as="sourcePoint" />
            <mxPoint x="450" y="200" as="targetPoint" />
          </mxGeometry>
        </mxCell>
        <mxCell id="qZ_pkVnO6XhNciUabmrp-64" value="1" style="edgeLabel;html=1;align=center;verticalAlign=middle;resizable=0;points=[];" parent="qZ_pkVnO6XhNciUabmrp-56" vertex="1" connectable="0">
          <mxGeometry x="-0.05" y="-4" relative="1" as="geometry">
            <mxPoint y="6" as="offset" />
          </mxGeometry>
        </mxCell>
        <mxCell id="qZ_pkVnO6XhNciUabmrp-57" value="" style="endArrow=none;html=1;rounded=0;entryX=0.25;entryY=0.925;entryDx=0;entryDy=0;entryPerimeter=0;exitX=1;exitY=0;exitDx=0;exitDy=0;" parent="1" source="qZ_pkVnO6XhNciUabmrp-10" target="qZ_pkVnO6XhNciUabmrp-9" edge="1">
          <mxGeometry width="50" height="50" relative="1" as="geometry">
            <mxPoint x="400" y="250" as="sourcePoint" />
            <mxPoint x="450" y="200" as="targetPoint" />
          </mxGeometry>
        </mxCell>
        <mxCell id="qZ_pkVnO6XhNciUabmrp-61" value="10" style="edgeLabel;html=1;align=center;verticalAlign=middle;resizable=0;points=[];" parent="qZ_pkVnO6XhNciUabmrp-57" vertex="1" connectable="0">
          <mxGeometry x="0.3873" y="-3" relative="1" as="geometry">
            <mxPoint x="7" y="6" as="offset" />
          </mxGeometry>
        </mxCell>
        <mxCell id="qZ_pkVnO6XhNciUabmrp-58" value="" style="endArrow=none;html=1;rounded=0;entryX=0.217;entryY=0.075;entryDx=0;entryDy=0;entryPerimeter=0;" parent="1" source="qZ_pkVnO6XhNciUabmrp-8" target="qZ_pkVnO6XhNciUabmrp-11" edge="1">
          <mxGeometry width="50" height="50" relative="1" as="geometry">
            <mxPoint x="400" y="250" as="sourcePoint" />
            <mxPoint x="450" y="200" as="targetPoint" />
          </mxGeometry>
        </mxCell>
        <mxCell id="qZ_pkVnO6XhNciUabmrp-62" value="1" style="edgeLabel;html=1;align=center;verticalAlign=middle;resizable=0;points=[];" parent="qZ_pkVnO6XhNciUabmrp-58" vertex="1" connectable="0">
          <mxGeometry x="0.5872" y="2" relative="1" as="geometry">
            <mxPoint x="2" y="-13" as="offset" />
          </mxGeometry>
        </mxCell>
        <mxCell id="qZ_pkVnO6XhNciUabmrp-70" value="" style="endArrow=none;html=1;rounded=0;" parent="1" source="qZ_pkVnO6XhNciUabmrp-13" target="qZ_pkVnO6XhNciUabmrp-8" edge="1">
          <mxGeometry width="50" height="50" relative="1" as="geometry">
            <mxPoint x="400" y="450" as="sourcePoint" />
            <mxPoint x="450" y="400" as="targetPoint" />
          </mxGeometry>
        </mxCell>
        <mxCell id="qZ_pkVnO6XhNciUabmrp-71" value="10" style="edgeLabel;html=1;align=center;verticalAlign=middle;resizable=0;points=[];" parent="qZ_pkVnO6XhNciUabmrp-70" vertex="1" connectable="0">
          <mxGeometry x="-0.2436" y="-1" relative="1" as="geometry">
            <mxPoint x="-18" as="offset" />
          </mxGeometry>
        </mxCell>
        <mxCell id="qZ_pkVnO6XhNciUabmrp-72" value="" style="endArrow=none;html=1;rounded=0;entryX=0.042;entryY=0.65;entryDx=0;entryDy=0;entryPerimeter=0;exitX=0;exitY=0;exitDx=0;exitDy=0;" parent="1" source="qZ_pkVnO6XhNciUabmrp-16" target="qZ_pkVnO6XhNciUabmrp-8" edge="1">
          <mxGeometry width="50" height="50" relative="1" as="geometry">
            <mxPoint x="400" y="450" as="sourcePoint" />
            <mxPoint x="450" y="400" as="targetPoint" />
            <Array as="points">
              <mxPoint x="140" y="720" />
              <mxPoint x="170" y="580" />
              <mxPoint x="190" y="490" />
              <mxPoint x="370" y="380" />
            </Array>
          </mxGeometry>
        </mxCell>
        <mxCell id="qZ_pkVnO6XhNciUabmrp-73" value="1" style="edgeLabel;html=1;align=center;verticalAlign=middle;resizable=0;points=[];" parent="qZ_pkVnO6XhNciUabmrp-72" vertex="1" connectable="0">
          <mxGeometry x="-0.3822" y="-1" relative="1" as="geometry">
            <mxPoint x="-13" as="offset" />
          </mxGeometry>
        </mxCell>
        <mxCell id="DQJwwhCQ7t9wGabtWNte-1" value="" style="endArrow=none;html=1;rounded=0;entryX=0.417;entryY=1;entryDx=0;entryDy=0;entryPerimeter=0;" edge="1" parent="1" source="qZ_pkVnO6XhNciUabmrp-16" target="qZ_pkVnO6XhNciUabmrp-10">
          <mxGeometry width="50" height="50" relative="1" as="geometry">
            <mxPoint x="400" y="700" as="sourcePoint" />
            <mxPoint x="450" y="650" as="targetPoint" />
            <Array as="points">
              <mxPoint x="540" y="990" />
              <mxPoint x="750" y="970" />
              <mxPoint x="740" y="560" />
            </Array>
          </mxGeometry>
        </mxCell>
        <mxCell id="DQJwwhCQ7t9wGabtWNte-2" value="1" style="edgeLabel;html=1;align=center;verticalAlign=middle;resizable=0;points=[];" vertex="1" connectable="0" parent="DQJwwhCQ7t9wGabtWNte-1">
          <mxGeometry x="-0.47" y="-2" relative="1" as="geometry">
            <mxPoint x="19" y="-24" as="offset" />
          </mxGeometry>
        </mxCell>
      </root>
    </mxGraphModel>
  </diagram>
</mxfile>
